<svg xmlns="http://www.w3.org/2000/svg" xmlns:xlink="http://www.w3.org/1999/xlink" viewBox="0 0 96.12 109.05"><defs><style>.cls-1{fill:#328a89;}.cls-2{fill:#353f49;}.cls-3{clip-path:url(#clip-path);}.cls-4{fill:#484f59;}.cls-5{fill:#fff;}</style><clipPath id="clip-path"><path class="cls-1" d="M66.78,54.53A18.72,18.72,0,1,1,48.06,35.81,18.72,18.72,0,0,1,66.78,54.53Z"/></clipPath></defs><title>homepage_1</title><g id="Layer_2" data-name="Layer 2"><g id="Layer_1-2" data-name="Layer 1"><rect class="cls-1" x="47.23" y="52.44" width="1.67" height="2.09"/><path class="cls-1" d="M48.9,48.43H47.23v-4H48.9Zm0-8H47.23v-4H48.9Zm0-8H47.23v-4H48.9Zm0-8H47.23v-4H48.9Zm0-8H47.23v-4H48.9Z"/><rect class="cls-1" x="47.23" y="6.27" width="1.67" height="2.09"/><rect class="cls-1" x="47.23" y="54.53" width="1.67" height="2.09"/><path class="cls-1" d="M48.9,96.69H47.22v-4H48.9Zm0-8H47.23v-4H48.9Zm0-8H47.23v-4H48.9Zm0-8H47.23v-4H48.9Zm0-8H47.23v-4H48.9Z"/><rect class="cls-1" x="47.22" y="100.7" width="1.67" height="2.09"/><rect class="cls-1" x="6.13" y="77.3" width="2.09" height="1.67" transform="matrix(0.87, -0.5, 0.5, 0.87, -38.08, 14.04)"/><path class="cls-1" d="M12,76.33l-.84-1.45,3.47-2,.84,1.45Zm6.94-4-.84-1.45,3.47-2,.84,1.45Zm6.94-4L25,66.87l3.47-2,.84,1.45Zm6.94-4L32,62.86l3.47-2,.84,1.45Zm6.94-4-.83-1.45,3.47-2,.83,1.45Z"/><polygon class="cls-1" points="46.67 56.3 45.84 54.85 46.39 54.53 45.84 54.21 46.67 52.76 49.74 54.53 46.67 56.3"/><path class="cls-1" d="M42.37,52.2l-3.47-2,.83-1.45,3.47,2Zm-6.95-4-3.47-2,.84-1.45,3.47,2Zm-6.94-4-3.47-2,.84-1.45,3.47,2Zm-6.94-4-3.47-2,.84-1.45,3.47,2Zm-6.94-4-3.47-2L12,32.72l3.47,2Z"/><rect class="cls-1" x="6.34" y="29.88" width="1.67" height="2.09" transform="translate(-23.19 21.67) rotate(-60)"/><rect class="cls-1" x="87.9" y="30.08" width="2.09" height="1.67" transform="translate(-3.54 48.65) rotate(-30.02)"/><path class="cls-1" d="M53.76,52.2l-.83-1.44,3.47-2,.83,1.45Zm6.94-4-.83-1.45,3.47-2,.83,1.45Zm6.94-4-.83-1.45,3.47-2,.83,1.45Zm6.94-4-.84-1.45,3.48-2,.83,1.45Zm6.94-4-.83-1.45,3.47-2L85,34.17Z"/><polygon class="cls-1" points="49.45 56.3 46.39 54.53 49.45 52.76 50.29 54.21 49.74 54.53 50.29 54.85 49.45 56.3"/><path class="cls-1" d="M84.16,76.33l-3.47-2,.83-1.45,3.47,2Zm-6.94-4-3.48-2,.84-1.45,3.47,2Zm-7-4-3.47-2,.84-1.45,3.47,2Zm-6.93-4-3.47-2,.83-1.45,3.47,2Zm-6.94-4-3.47-2,.83-1.45,3.47,2Z"/><rect class="cls-1" x="88.11" y="77.09" width="1.67" height="2.09" transform="translate(-23.21 116.05) rotate(-59.97)"/><polygon class="cls-1" points="48.06 103.75 45.83 102.47 46.67 101.02 48.06 101.82 49.45 101.02 50.29 102.47 48.06 103.75"/><path class="cls-1" d="M42.36,100.46l-3.47-2L39.73,97l3.47,2Zm-6.94-4-3.47-2L32.79,93l3.47,2Zm-6.94-4-3.47-2L25.85,89l3.47,2Zm-6.94-4-3.47-2L18.91,85l3.47,2Zm-6.94-4-3.47-2L12,81l3.47,2Z"/><polygon class="cls-1" points="7.66 80.42 5.43 79.14 5.43 76.57 7.11 76.57 7.11 78.17 8.5 78.97 7.66 80.42"/><path class="cls-1" d="M7.11,72.56H5.44v-4H7.11Zm0-8H5.44v-4H7.11Zm-1.67-8v-4H7.1v4Zm1.66-8H5.43v-4H7.1Zm0-8H5.43v-4H7.1Z"/><polygon class="cls-1" points="7.11 32.49 5.43 32.49 5.43 29.92 7.66 28.63 8.5 30.08 7.11 30.88 7.11 32.49"/><path class="cls-1" d="M12,28.07l-.84-1.44,3.47-2,.84,1.45Zm6.94-4-.84-1.45,3.47-2,.84,1.45Zm6.94-4L25,18.61l3.47-2,.84,1.45Zm6.94-4L32,14.6l3.47-2,.84,1.45Zm6.94-4L38.9,10.6l3.47-2L43.2,10Z"/><polygon class="cls-1" points="46.67 8.04 45.84 6.59 48.06 5.3 50.29 6.59 49.45 8.04 48.06 7.23 46.67 8.04"/><path class="cls-1" d="M84.15,28.07l-3.47-2,.84-1.45,3.47,2Zm-6.94-4-3.47-2,.84-1.45,3.47,2Zm-6.94-4-3.47-2,.84-1.44,3.47,2Zm-6.94-4-3.47-2,.84-1.45,3.47,2Zm-6.94-4-3.47-2,.84-1.45,3.47,2Z"/><polygon class="cls-1" points="90.69 32.49 89.02 32.49 89.02 30.88 87.63 30.08 88.46 28.63 90.69 29.92 90.69 32.49"/><path class="cls-1" d="M90.69,72.56H89v-4h1.67Zm0-8H89v-4h1.67Zm0-8H89v-4h1.67Zm0-8H89v-4h1.67Zm0-8H89v-4h1.67Z"/><polygon class="cls-1" points="88.46 80.42 87.63 78.97 89.02 78.17 89.02 76.57 90.69 76.57 90.69 79.14 88.46 80.42"/><path class="cls-1" d="M53.76,100.46,52.92,99l3.47-2,.84,1.45Zm6.94-4L59.86,95l3.47-2,.84,1.45Zm6.94-4L66.8,91l3.47-2,.84,1.45Zm6.94-4L73.74,87l3.48-2,.83,1.44Zm6.94-4L80.69,83l3.47-2L85,82.43Z"/><path class="cls-1" d="M11.7,27.26A6.27,6.27,0,1,1,3.14,25,6.28,6.28,0,0,1,11.7,27.26Z"/><path class="cls-2" d="M53.49,3.13A6.27,6.27,0,1,1,44.93.84,6.27,6.27,0,0,1,53.49,3.13Z"/><path class="cls-1" d="M95.28,27.26A6.27,6.27,0,1,1,86.72,25,6.27,6.27,0,0,1,95.28,27.26Z"/><path class="cls-2" d="M95.28,75.52a6.27,6.27,0,1,1-8.56-2.29A6.26,6.26,0,0,1,95.28,75.52Z"/><path class="cls-1" d="M53.49,99.65a6.27,6.27,0,1,1-8.56-2.29A6.26,6.26,0,0,1,53.49,99.65Z"/><path class="cls-2" d="M11.7,75.52a6.27,6.27,0,1,1-8.56-2.29A6.28,6.28,0,0,1,11.7,75.52Z"/><path class="cls-1" d="M66.78,54.53A18.72,18.72,0,1,1,48.06,35.81,18.72,18.72,0,0,1,66.78,54.53Z"/><g class="cls-3"><polygon class="cls-4" points="53.79 48.03 42.33 48.03 41.55 64.69 54.58 64.69 53.79 48.03"/><path class="cls-5" d="M35.12,68.27l0,.09-.78,2.48h0l-1,3.24H62.84l-1-3.24-1.12-3.56a4.19,4.19,0,0,0-.92-1.59,4.08,4.08,0,0,0-1.5-1l-5.92-2.35a1.67,1.67,0,0,1-.76-.61,1.63,1.63,0,0,1-.29-.94V57.88H44.83v2.88a1.7,1.7,0,0,1-.29.94,1.72,1.72,0,0,1-.76.61l-5.92,2.35a4.15,4.15,0,0,0-2.42,2.62l-.32,1Z"/><path class="cls-5" d="M48.06,43.23c-3.54,0-6.06,2.58-6.06,8.05,0,4.62,2.71,8.52,6.06,8.52s6.07-3.9,6.07-8.52C54.13,45.81,51.6,43.23,48.06,43.23Z"/><path class="cls-4" d="M53.5,43.52H42.62s-.77,5.44.22,6.55c0-.45.43-.58,1.16-.58a6.12,6.12,0,0,0,1-2.55,8.14,8.14,0,0,1,.18,2.6c.78.05,1.73.13,2.84.14l.82,0a1.22,1.22,0,0,0,.47-.69,1.4,1.4,0,0,1,.24.66c2.33-.13,3.62-.4,3.7.44C54.28,49,53.5,43.52,53.5,43.52Z"/><path class="cls-4" d="M43.78,62.31a1.72,1.72,0,0,0,.76-.61,1.7,1.7,0,0,0,.29-.94V59.54H43a38.26,38.26,0,0,1-.36-5c0-4.75.32-6.53,1.64-8.13a7.31,7.31,0,0,1,3.78-2.49,7.32,7.32,0,0,1,3.79,2.49c1.31,1.6,1.64,3.38,1.64,8.13a36.66,36.66,0,0,1-.37,5H51.3v1.22a1.63,1.63,0,0,0,.29.94,1.67,1.67,0,0,0,.76.61l3.39,1.35a2.89,2.89,0,0,0,.63-1.78V59.54a65.43,65.43,0,0,0-.95-12.81c-.73-3.21-3.47-6.31-7.36-5.47-3.88-.84-6.62,2.26-7.35,5.47a64.67,64.67,0,0,0-1,12.81v2.34a2.78,2.78,0,0,0,.64,1.78Z"/><path class="cls-4" d="M38.41,74.08H57.7a18.65,18.65,0,0,1-1.45-7.56,22,22,0,0,1,.15-2.6h0l-1.59-.63L54.13,66a6.2,6.2,0,0,1-2.21,3.42,6.45,6.45,0,0,1-7.71,0A6.2,6.2,0,0,1,42,66l-.69-2.74-1.58.63h0a22,22,0,0,1,.15,2.6A18.47,18.47,0,0,1,38.41,74.08Z"/></g></g></g></svg>