<?xml version="1.0" encoding="utf-8"?>
<!-- Generator: Adobe Illustrator 22.1.0, SVG Export Plug-In . SVG Version: 6.00 Build 0)  -->
<svg version="1.1" id="Layer_1" xmlns="http://www.w3.org/2000/svg" xmlns:xlink="http://www.w3.org/1999/xlink" x="0px" y="0px"
	 viewBox="0 0 446.4 114.8" style="enable-background:new 0 0 446.4 114.8;" xml:space="preserve">
<style type="text/css">
	.st0{fill:none;stroke:#E6E6E6;stroke-width:0.8;stroke-miterlimit:10;}
	.st1{fill:#FFDA7A;}
	.st2{fill:#E6E4E4;}
	.st3{fill:#328A89;}
	.st4{fill:#226F6D;}
	.st5{fill:#014444;}
	.st6{fill:#FFFFFF;}
	.st7{clip-path:url(#SVGID_2_);}
	.st8{fill:#353F49;}
	.st9{fill:#A6262C;}
	.st10{fill:#D1D3D4;}
	.st11{fill:#E6E7E8;}
	.st12{fill:#E5BF9E;}
	.st13{opacity:0.1;fill:#DDAC8C;enable-background:new    ;}
	.st14{fill:#E4BE92;}
	.st15{fill:#9C0308;}
	.st16{fill:#262421;}
</style>
<g id="Layer_2_1_">
	<g id="Layer_1-2">
		<rect x="147.1" y="11.2" class="st0" width="78.9" height="103.6"/>
		<rect x="147.1" y="0" class="st1" width="78.1" height="11.2"/>
		<rect x="152.1" y="17.3" class="st2" width="30.4" height="31.2"/>
		<rect x="188.7" y="17.3" class="st2" width="30.4" height="31.2"/>
		<rect x="152.1" y="91.5" class="st2" width="66.9" height="3.1"/>
		<rect x="152.1" y="97.7" class="st2" width="66.9" height="3.1"/>
		<rect x="152.1" y="103.9" class="st2" width="66.9" height="3.1"/>
		<rect x="152.1" y="54.6" class="st2" width="66.9" height="30.8"/>
		<path class="st3" d="M203.9,4.3c0-2.4,1.9-4.3,4.3-4.3h70.5c2.4,0,4.3,1.9,4.3,4.3v106.2c0,2.4-1.9,4.3-4.3,4.3h-70.5
			c-2.4,0-4.3-1.9-4.3-4.3V4.3z"/>
		<path class="st4" d="M239.1,110c-1.1,0-1.9-0.9-1.9-1.9v0v-0.5c0-1.1,0.9-1.9,1.9-1.9h8.7c1.1,0,1.9,0.9,1.9,1.9v0.5
			c0,1.1-0.9,1.9-1.9,1.9H239.1z"/>
		<path class="st4" d="M243.4,7.6c-1.1,0-2-0.9-2-2s0.9-2,2-2s2,0.9,2,2S244.5,7.6,243.4,7.6z"/>
		<path class="st5" d="M243.4,6.4c-0.5,0-0.8-0.4-0.8-0.8c0,0,0,0,0,0c0-0.5,0.4-0.8,0.8-0.8c0.5,0,0.8,0.4,0.8,0.8
			C244.2,6.1,243.9,6.4,243.4,6.4z"/>
		<rect x="208.4" y="11.2" class="st6" width="70.1" height="89.7"/>
		<rect x="230.7" y="77.9" class="st3" width="25.5" height="4.8"/>
		<rect x="230.7" y="85.1" class="st1" width="25.5" height="4.8"/>
		<circle class="st1" cx="243.4" cy="46.7" r="21.9"/>
		<g>
			<defs>
				<circle id="SVGID_1_" cx="243.4" cy="46.7" r="21.9"/>
			</defs>
			<clipPath id="SVGID_2_">
				<use xlink:href="#SVGID_1_"  style="overflow:visible;"/>
			</clipPath>
			<g class="st7">
				<polygon class="st8" points="250.1,39 236.7,39 235.8,58.5 251,58.5 				"/>
				<path class="st6" d="M228.3,62.7v0.1l-0.9,2.9l0,0l-1.2,3.8h34.6l-1.2-3.8l-1.3-4.2c-0.2-0.7-0.6-1.3-1.1-1.8
					c-0.5-0.5-1.1-0.9-1.8-1.2l-6.9-2.7c-0.4-0.1-0.7-0.4-0.9-0.7c-0.2-0.3-0.3-0.7-0.3-1v-3.4h-7.6V54c0,0.8-0.5,1.5-1.2,1.8
					l-6.9,2.7c-0.7,0.3-1.3,0.7-1.8,1.2c-0.5,0.5-0.9,1.2-1.1,1.8L228.3,62.7L228.3,62.7z"/>
				<path class="st6" d="M243.4,33.4c-4.1,0-7.1,3-7.1,9.4c0,5.4,3.2,10,7.1,10s7.1-4.6,7.1-10C250.5,36.4,247.6,33.4,243.4,33.4z"
					/>
				<path class="st8" d="M249.8,33.8H237c0,0-0.9,6.4,0.2,7.7c0.1-0.5,0.5-0.7,1.4-0.7c0.6-0.9,1.1-1.9,1.2-3c0.2,1,0.3,2,0.2,3
					c0.9,0.1,2,0.2,3.3,0.2h1c0.3-0.2,0.5-0.5,0.6-0.8c0.2,0.2,0.3,0.5,0.3,0.8c2.7-0.2,4.2-0.5,4.3,0.5
					C250.7,40.1,249.8,33.8,249.8,33.8z"/>
				<path class="st8" d="M238.4,55.8c0.7-0.3,1.2-1,1.2-1.8v-1.5h-2.1c-0.3-1.9-0.4-3.9-0.4-5.9c0-5.6,0.4-7.6,1.9-9.5
					c1.1-1.4,2.7-2.4,4.4-2.9c1.8,0.5,3.3,1.5,4.4,2.9c1.5,1.9,1.9,4,1.9,9.5c0,2-0.2,3.9-0.4,5.9h-2.1V54c0,0.4,0.1,0.8,0.3,1.1
					c0.2,0.3,0.5,0.6,0.9,0.7l4,1.6c0.5-0.6,0.7-1.3,0.7-2.1v-2.8c0-4.6-0.1-10.6-1.1-15c-0.8-3.8-4.1-7.4-8.6-6.4
					c-4.5-1-7.8,2.7-8.6,6.4c-1,4.4-1.1,10.4-1.1,15v2.7c0,0.8,0.3,1.5,0.8,2.1L238.4,55.8z"/>
				<path class="st9" d="M232.1,69.5h22.6c-1.2-2.8-1.8-5.8-1.7-8.9c0-1,0.1-2,0.2-3l0,0l-1.9-0.7l-0.8,3.2c-0.4,1.6-1.3,3-2.6,4
					c-2.7,2-6.3,2-9,0c-1.3-1-2.2-2.4-2.6-4l-0.8-3.2l-1.8,0.7l0,0c0.1,1,0.2,2,0.2,3C233.9,63.7,233.3,66.7,232.1,69.5z"/>
			</g>
		</g>
	</g>
</g>
<g>
	<path class="st1" d="M436.2,164.9c1.2-0.5,2.2-1.4,2.7-2.7c0.3-0.8,0.3-0.8,0.6,0c0.5,1.2,1.4,2.2,2.7,2.7c0.8,0.3,0.8,0.3,0,0.6
		c-1.2,0.5-2.2,1.4-2.7,2.7c-0.3,0.8-0.3,0.8-0.6,0c-0.5-1.2-1.4-2.2-2.7-2.7C435.3,165.2,435.3,165.2,436.2,164.9z"/>
	<path class="st1" d="M431.5,173.3c1.7-0.6,3-2,3.7-3.7c0.4-1.2,0.4-1.2,0.8,0c0.6,1.7,2,3,3.7,3.7c1.2,0.4,1.2,0.4,0,0.8
		c-1.7,0.6-3,2-3.7,3.7c-0.4,1.2-0.4,1.2-0.8,0c-0.6-1.7-2-3-3.7-3.7C430.3,173.7,430.3,173.8,431.5,173.3z"/>
	<circle class="st1" cx="445.5" cy="177" r="1.6"/>
	<path class="st1" d="M318.8,221.3c0,0.9-0.7,1.6-1.6,1.6c-0.9,0-1.6-0.7-1.6-1.6c0-0.9,0.7-1.6,1.6-1.6
		C318.1,219.7,318.8,220.4,318.8,221.3z"/>
	<path class="st1" d="M328.1,187.4c0,0.9-0.7,1.6-1.6,1.6c-0.9,0-1.6-0.7-1.6-1.6c0-0.9,0.7-1.6,1.6-1.6
		C327.3,185.8,328.1,186.5,328.1,187.4z"/>
	<circle class="st1" cx="392.8" cy="185.8" r="1.6"/>
	<circle class="st1" cx="292.8" cy="244.3" r="1.6"/>
	<path class="st1" d="M427.1,161.1c0,0.7-0.5,1.2-1.2,1.2c-0.7,0-1.2-0.5-1.2-1.2c0-0.7,0.5-1.2,1.2-1.2
		C426.6,159.9,427.1,160.4,427.1,161.1z"/>
	<path class="st1" d="M304,248.5c0,0.4-0.3,0.7-0.7,0.7s-0.7-0.3-0.7-0.7c0-0.4,0.3-0.7,0.7-0.7S304,248.1,304,248.5z"/>
	<path class="st1" d="M297.9,240.2c0,0.4-0.3,0.7-0.7,0.7c-0.4,0-0.7-0.3-0.7-0.7c0-0.4,0.3-0.7,0.7-0.7
		C297.6,239.5,297.9,239.8,297.9,240.2z"/>
	<path class="st1" d="M396.8,191.7c0,0.4-0.3,0.7-0.7,0.7c-0.4,0-0.7-0.3-0.7-0.7c0-0.4,0.3-0.7,0.7-0.7
		C396.5,191,396.8,191.3,396.8,191.7z"/>
	<path class="st1" d="M294.2,258.3c0,0.4-0.3,0.7-0.7,0.7c-0.4,0-0.7-0.3-0.7-0.7c0-0.4,0.3-0.7,0.7-0.7
		C293.9,257.6,294.2,257.9,294.2,258.3z"/>
	<path class="st1" d="M330.7,199.2c0,0.4-0.3,0.7-0.7,0.7c-0.4,0-0.7-0.3-0.7-0.7c0-0.4,0.3-0.7,0.7-0.7
		C330.4,198.5,330.7,198.8,330.7,199.2z"/>
	<path class="st1" d="M336.1,127.2c0,0.4-0.3,0.7-0.7,0.7c-0.4,0-0.7-0.3-0.7-0.7c0-0.4,0.3-0.7,0.7-0.7
		C335.8,126.5,336.1,126.8,336.1,127.2z"/>
	<path class="st1" d="M323.3,132.2c0,0.4-0.3,0.7-0.7,0.7c-0.4,0-0.7-0.3-0.7-0.7c0-0.4,0.3-0.7,0.7-0.7
		C323,131.5,323.3,131.8,323.3,132.2z"/>
	<path class="st1" d="M344.4,131.5c0,0.4-0.3,0.7-0.7,0.7c-0.4,0-0.7-0.3-0.7-0.7c0-0.4,0.3-0.7,0.7-0.7
		C344,130.8,344.4,131.1,344.4,131.5z"/>
	<path class="st1" d="M442.9,183.1c0,0.4-0.3,0.7-0.7,0.7c-0.4,0-0.7-0.3-0.7-0.7c0-0.4,0.3-0.7,0.7-0.7
		C442.5,182.4,442.9,182.7,442.9,183.1z"/>
	<path class="st1" d="M404,188.6c0,0.4-0.3,0.7-0.7,0.7c-0.4,0-0.7-0.3-0.7-0.7c0-0.4,0.3-0.7,0.7-0.7
		C403.7,187.9,404,188.2,404,188.6z"/>
</g>
<g>
	<g>
		<path class="st1" d="M111.1,57.4c0,11.2-4.5,21.3-11.9,28.7L111.2,98C121.6,87.6,128,73.2,128,57.4H111.1z"/>
		<path class="st8" d="M70.6,16.8c22.4,0,40.6,18.2,40.6,40.5c0,0,0,0,0,0H128c0-31.7-25.7-57.4-57.4-57.4L70.6,16.8L70.6,16.8z"/>
		<path class="st9" d="M70.5,16.8V-0.1c-7.8,0-15.2,1.6-21.9,4.4L55,19.9C59.8,17.9,65,16.8,70.5,16.8z"/>
		<path class="st3" d="M99.2,86c-7.3,7.3-17.5,11.9-28.6,11.9C48.2,97.9,30,79.7,30,57.3C30,40.5,40.3,26,55,19.9L48.6,4.3
			c-20.8,8.6-35.5,29.1-35.5,53c0,31.7,25.7,57.4,57.4,57.4c15.9,0,30.2-6.4,40.6-16.8L99.2,86z"/>
	</g>
	<g>
		<g>
			<path class="st8" d="M70.6,88c-16.9,0-30.7-13.8-30.7-30.7c0-16.9,13.8-30.7,30.7-30.7c16.9,0,30.7,13.8,30.7,30.7
				C101.2,74.3,87.5,88,70.6,88z M70.6,29.7c-15.2,0-27.7,12.4-27.7,27.7C42.9,72.6,55.3,85,70.6,85c15.2,0,27.7-12.4,27.7-27.7
				C98.2,42.1,85.8,29.7,70.6,29.7z"/>
			<path class="st8" d="M70.6,88c-9,0-16.1-13.5-16.1-30.7c0-17.2,7.1-30.7,16.1-30.7v3c-7.1,0-13.1,12.7-13.1,27.7
				c0,15,6,27.7,13.1,27.7V88z"/>
			<path class="st8" d="M70.6,88v-3c7.1,0,13.1-12.7,13.1-27.7c0-15-6-27.7-13.1-27.7v-3c9,0,16.1,13.5,16.1,30.7
				C86.6,74.5,79.6,88,70.6,88z"/>
			<rect x="69" y="28.2" class="st8" width="3" height="58.3"/>
			<rect x="41.4" y="55.8" class="st8" width="58.3" height="3"/>
			<path class="st8" d="M70.6,44.3c-7.9,0-15.7-1.2-23.2-3.7l0.9-2.9c14.4,4.7,30.2,4.7,44.6,0l0.9,2.9C86.3,43,78.5,44.3,70.6,44.3
				z"/>
			<path class="st8" d="M48.3,77l-0.9-2.9c15-4.9,31.5-4.9,46.5,0L92.8,77C78.5,72.3,62.6,72.3,48.3,77z"/>
		</g>
	</g>
</g>
<g>
	<g>
		<path class="st3" d="M381.9,6.6c0,3.7-3,6.6-6.7,6.6c-3.7,0-6.6-3-6.6-6.6c0-3.7,3-6.6,6.6-6.6C378.9-0.1,381.9,2.9,381.9,6.6z"/>
		<path class="st1" d="M344,16.8c2.6,2.6,2.6,6.8,0,9.4c-2.6,2.6-6.8,2.6-9.4,0c-2.6-2.6-2.6-6.8,0-9.4
			C337.2,14.2,341.4,14.2,344,16.8z"/>
		<path class="st2" d="M324.4,50.7c3.7,0,6.6,3,6.6,6.6c0,3.7-3,6.6-6.6,6.6c-3.7,0-6.7-3-6.7-6.6C317.8,53.7,320.8,50.7,324.4,50.7
			z"/>
		<path class="st8" d="M334.6,88.6c2.6-2.6,6.8-2.6,9.4,0c2.6,2.6,2.6,6.8,0,9.4c-2.6,2.6-6.8,2.6-9.4,0
			C332,95.4,332,91.2,334.6,88.6z"/>
		<path class="st3" d="M368.6,108.2c0-3.7,3-6.6,6.6-6.6c3.7,0,6.7,3,6.7,6.6c0,3.7-3,6.6-6.7,6.6
			C371.5,114.8,368.6,111.8,368.6,108.2z"/>
		<path class="st1" d="M406.4,98c-2.6-2.6-2.6-6.8,0-9.4c2.6-2.6,6.8-2.6,9.4,0c2.6,2.6,2.6,6.8,0,9.4
			C413.2,100.6,409,100.6,406.4,98z"/>
		<path class="st2" d="M426,64c-3.7,0-6.6-3-6.6-6.6c0-3.7,3-6.6,6.6-6.6c3.7,0,6.6,3,6.6,6.6C432.6,61,429.7,64,426,64z"/>
		<path class="st8" d="M415.8,26.2c-2.6,2.6-6.8,2.6-9.4,0c-2.6-2.6-2.6-6.8,0-9.4c2.6-2.6,6.8-2.6,9.4,0
			C418.4,19.4,418.4,23.6,415.8,26.2z"/>
		<rect x="373.4" y="20.9" class="st10" width="3.7" height="1.9"/>
		<rect x="373.4" y="16.5" class="st11" width="3.7" height="1.9"/>
		
			<rect x="348.5" y="31.7" transform="matrix(0.7064 -0.7078 0.7078 0.7064 79.8358 257.5895)" class="st10" width="3.7" height="1.7"/>
		
			<rect x="345.7" y="28.9" transform="matrix(0.7077 -0.7065 0.7065 0.7077 80.5857 254.2567)" class="st11" width="3.7" height="1.7"/>
		<rect x="338.7" y="55.5" class="st10" width="1.9" height="3.7"/>
		<rect x="334.3" y="55.5" class="st11" width="1.9" height="3.7"/>
		
			<rect x="349.1" y="80.6" transform="matrix(0.7081 -0.7061 0.7061 0.7081 43.925 271.2689)" class="st10" width="1.9" height="3.7"/>
		
			<rect x="346" y="83.7" transform="matrix(0.7064 -0.7078 0.7078 0.7064 41.2802 270.7328)" class="st11" width="1.9" height="3.7"/>
		<rect x="373.4" y="92" class="st10" width="3.7" height="1.9"/>
		<rect x="373.4" y="96.4" class="st11" width="3.7" height="1.9"/>
		<polygon class="st10" points="399.7,84.5 402.3,81.9 401,80.5 398.4,83.2 		"/>
		
			<rect x="401.6" y="84.7" transform="matrix(0.7074 -0.7068 0.7068 0.7074 57.5531 310.2337)" class="st11" width="3.7" height="1.9"/>
		<rect x="409.8" y="55.5" class="st10" width="1.9" height="3.7"/>
		<rect x="414.2" y="55.5" class="st11" width="1.9" height="3.7"/>
		
			<rect x="399.4" y="30.4" transform="matrix(0.7076 -0.7066 0.7066 0.7076 94.2768 292.3013)" class="st10" width="1.9" height="3.7"/>
		
			<rect x="402.5" y="27.3" transform="matrix(0.7066 -0.7076 0.7076 0.7066 97.7697 294.0397)" class="st11" width="1.9" height="3.7"/>
	</g>
	<g>
		<path class="st2" d="M369.7,67.9c0.3-0.2,0.6-0.3,0.9-0.4l0.1,0.1c0.3-0.1,0.5-0.1,0.7-0.2l0-3.4c0,0,0-0.1-0.1-0.1l0-0.3
			c-2.8-1.3-5-4.1-5.9-9.2c-0.8-0.6-1.5-1.6-1.7-2.8c-0.3-1.3,0-2.5,0.6-3.4c-0.3-3,0.2-6.1,1.1-7.5c1.5-2.3,7.7-7.3,15.7-3
			c0,0,0,0,0-0.1c5.4,0.5,5.9,5.9,5,10.4c0.7,0.8,1.1,2.1,0.9,3.4c-0.2,1.4-0.9,2.5-1.9,3.2c-0.6,3.6-2,6-3.7,7.6
			c-0.6,0.6-1.3,1.1-2.1,1.4l0,3.9c0.2,0.1,0.4,0.1,0.7,0.2l0.1-0.1c0.3,0.1,0.6,0.2,0.9,0.4c0.5,0.1,1.1,0.3,1.7,0.5
			c0.1,0,0.1,0,0.2,0c0.1,0,0.1,0,0.2,0.1c3.9,1.2,8.2,2.9,9.3,5.1c0.3,0.7,0.5,1.4,0.8,2.2c0.4,1.2,0.7,2.5,1,3.8
			c6.3-5.3,10.2-13.3,10.2-22.1c0-16.1-13-29.1-29.1-29.1c-16.1,0-29.1,13-29.1,29.1c0,9.1,4.2,17.3,10.8,22.6
			c0.5-2.1,1-4.3,1.6-6.4C359.8,71.1,365.3,69.1,369.7,67.9z"/>
		<path class="st12" d="M380.1,67.6L380.1,67.6c-0.2-0.1-0.4-0.2-0.6-0.2l0,0C379.6,67.5,379.8,67.6,380.1,67.6z"/>
		<path class="st12" d="M358.5,73.6c1.3-2.5,6.8-4.5,11.1-5.7c0,0,0,0,0.1,0C365.3,69.1,359.8,71.1,358.5,73.6
			c-0.6,2.1-1.2,4.3-1.6,6.4c0,0,0,0,0,0C357.4,77.9,357.9,75.7,358.5,73.6z"/>
		<polygon class="st12" points="375.4,71.2 375.4,71.2 375.4,71.1 373.2,71.2 375.4,74.3 		"/>
		<path class="st12" d="M371.4,67.4c-0.2,0.1-0.5,0.1-0.7,0.2l0.7,1L371.4,67.4z"/>
		<path class="st12" d="M382.9,68.4c0.1,0,0.1,0,0.2,0.1C383,68.4,383,68.4,382.9,68.4z"/>
		<path class="st12" d="M381.1,67.9c0.5,0.1,1.1,0.3,1.6,0.5C382.2,68.2,381.6,68,381.1,67.9C381.1,67.9,381.1,67.9,381.1,67.9
			L381.1,67.9z"/>
		<path class="st12" d="M394.1,79.5C394.1,79.5,394.1,79.5,394.1,79.5c-0.3-1.3-0.6-2.5-1-3.8C393.5,77,393.8,78.3,394.1,79.5z"/>
		<polygon class="st12" points="375.4,74.4 375.7,74.1 375.4,74.3 		"/>
		<path class="st12" d="M380.1,67.6c-0.2-0.1-0.4-0.1-0.6-0.2l0,1.1L380.1,67.6z"/>
		<polygon class="st12" points="375.4,74.3 375.4,74.3 377.6,71.2 375.4,71.2 		"/>
		<path class="st12" d="M371.4,64l0,3.4c1.3-0.3,2.5-0.6,3.2-0.7C373.2,66.2,371.9,65.3,371.4,64z"/>
		<path class="st12" d="M379.4,67.4C379.4,67.4,379.4,67.4,379.4,67.4l0-3.8c0,0,0,0-0.1,0L379.4,67.4z"/>
		<path class="st12" d="M379.4,67.5C379.4,67.5,379.4,67.5,379.4,67.5L379.4,67.5C379.4,67.4,379.4,67.4,379.4,67.5L379.4,67.5z"/>
		<path class="st12" d="M373.2,71.2l2.2,0l0-4.2c-0.3-0.1-0.5-0.1-0.8-0.2c-0.7,0.1-1.8,0.4-3.2,0.7l0,1.2L373.2,71.2z"/>
		<path class="st12" d="M379.4,68.6l0-1.1c0,0,0,0-0.1,0L379.4,68.6L379.4,68.6z"/>
		<rect x="375.4" y="71.1" class="st12" width="0" height="0"/>
		<polygon class="st12" points="375.4,71.1 375.4,71.2 377.6,71.2 377.6,71.1 		"/>
		<path class="st12" d="M379.4,66.8c-0.4,0.1-0.9,0.2-1.4,0.3c0.4,0.1,0.9,0.2,1.4,0.3l0-3.8c0,0,0,0,0,0V66.8z"/>
		<path class="st12" d="M377.9,67.1c0.5,0.1,1,0.2,1.5,0.4v0c-0.5-0.1-0.9-0.2-1.4-0.3C377.9,67.1,377.9,67.1,377.9,67.1z"/>
		<path class="st12" d="M375.4,66.9C375.4,66.9,375.4,66.9,375.4,66.9l0,4.2h0L375.4,66.9z"/>
		<path class="st12" d="M377.1,67.2c-0.5,0-1.1-0.1-1.7-0.2l0,4.2l2.2,0l1.7-2.5l0-1.2c-0.5-0.1-1.1-0.3-1.5-0.4
			C377.6,67.1,377.4,67.2,377.1,67.2z"/>
		<path class="st6" d="M371.4,63.6l0,0.3c0,0,0,0.1,0.1,0.1L371.4,63.6C371.4,63.6,371.4,63.6,371.4,63.6z"/>
		<path class="st13" d="M371.4,63.6l0,0.3c0,0,0,0.1,0.1,0.1L371.4,63.6C371.4,63.6,371.4,63.6,371.4,63.6z"/>
		<path class="st12" d="M374.6,66.7c0.4-0.1,0.7-0.1,0.8-0.2l0-2.2c-1.4,0-2.7-0.2-3.9-0.8l0,0.4C371.9,65.3,373.2,66.2,374.6,66.7z
			"/>
		<path class="st13" d="M374.6,66.7c0.4-0.1,0.7-0.1,0.8-0.2l0-2.2c-1.4,0-2.7-0.2-3.9-0.8l0,0.4C371.9,65.3,373.2,66.2,374.6,66.7z
			"/>
		<path class="st12" d="M374.6,66.7c0.2,0.1,0.5,0.2,0.8,0.2l0-0.4C375.3,66.6,375,66.6,374.6,66.7z"/>
		<path class="st13" d="M374.6,66.7c0.2,0.1,0.5,0.2,0.8,0.2l0-0.4C375.3,66.6,375,66.6,374.6,66.7z"/>
		<path class="st12" d="M378,67.1c0.5-0.1,0.9-0.1,1.4-0.3v-3.2c-1.2,0.6-2.5,0.8-3.9,0.8l0-0.1c0,0,0,0,0,0c0,0,0,0-0.1,0l0,2.2
			c0,0,0,0,0,0S376.4,66.7,378,67.1z"/>
		<path class="st13" d="M378,67.1c0.5-0.1,0.9-0.1,1.4-0.3v-3.2c-1.2,0.6-2.5,0.8-3.9,0.8l0-0.1c0,0,0,0,0,0c0,0,0,0-0.1,0l0,2.2
			c0,0,0,0,0,0S376.4,66.7,378,67.1z"/>
		<path class="st12" d="M375.4,66.6c0,0,1,0.2,2.5,0.5c0,0,0.1,0,0.1,0C376.4,66.7,375.4,66.5,375.4,66.6
			C375.4,66.5,375.4,66.5,375.4,66.6l0,0.3c0,0,0,0,0,0L375.4,66.6z"/>
		<path class="st13" d="M375.4,66.6c0,0,1,0.2,2.5,0.5c0,0,0.1,0,0.1,0C376.4,66.7,375.4,66.5,375.4,66.6
			C375.4,66.5,375.4,66.5,375.4,66.6l0,0.3c0,0,0,0,0,0L375.4,66.6z"/>
		<path class="st12" d="M377.9,67.1c-1.5-0.3-2.5-0.5-2.5-0.5l0,0.3c0.6,0.2,1.2,0.2,1.7,0.2C377.4,67.2,377.6,67.1,377.9,67.1z"/>
		<path class="st13" d="M377.9,67.1c-1.5-0.3-2.5-0.5-2.5-0.5l0,0.3c0.6,0.2,1.2,0.2,1.7,0.2C377.4,67.2,377.6,67.1,377.9,67.1z"/>
		<path class="st12" d="M372.7,57.8l2.7,0l0-11.5c-1.2,0.1-2.8,0-2.8-1.6c-2.5-0.5-4.1,0.7-4.9,2.4c1.3,0.4,2.4,1.7,2.7,3.4
			c0.5,2.2-0.7,4.3-2.5,4.6c-0.8,0.1-1.7-0.1-2.4-0.7c0.9,5.1,3,7.9,5.9,9.2l0-5.8H372.7z"/>
		<path class="st12" d="M381.5,62.2c1.8-1.6,3.1-4.1,3.7-7.6c0,0,0,0,0,0C384.6,58.1,383.3,60.6,381.5,62.2z"/>
		<polygon class="st12" points="375.4,57.8 372.7,57.8 375.4,57.8 		"/>
		<path class="st12" d="M371.4,57.8l1.3,0L371.4,57.8l0,5.8c0,0,0,0,0.1,0L371.4,57.8z"/>
		<path class="st12" d="M375.4,57.8L375.4,57.8l-2.7,0l-1.3,0l0,5.8c1.2,0.5,2.5,0.8,3.9,0.8L375.4,57.8L375.4,57.8z"/>
		<path class="st12" d="M375.4,64.4l0-6.6l-0.1,0L375.4,64.4C375.4,64.4,375.4,64.4,375.4,64.4C375.4,64.4,375.4,64.4,375.4,64.4z"
			/>
		<path class="st12" d="M385.2,54.5c0.9-0.7,1.6-1.8,1.9-3.2c0.2-1.3-0.2-2.6-0.9-3.4c-0.2,0.7-0.4,1.4-0.6,2.1
			C385.6,51.7,385.5,53.2,385.2,54.5z"/>
		<path class="st12" d="M385.7,50.1c0,1.6-0.2,3.1-0.4,4.5c0,0,0,0,0,0C385.5,53.2,385.6,51.7,385.7,50.1
			C385.7,50.1,385.7,50.1,385.7,50.1z"/>
		<path class="st12" d="M364.4,48.2c-0.6,0.9-0.9,2.1-0.6,3.4c0.2,1.2,0.9,2.2,1.7,2.8c-0.2-0.9-0.3-2-0.3-3.1
			C364.8,50.3,364.5,49.2,364.4,48.2z"/>
		<path class="st12" d="M367.9,55.1c1.8-0.3,3-2.4,2.5-4.6c-0.3-1.6-1.5-2.9-2.7-3.4c-1.4,2.7-1.3,6.6-1.3,6.6
			c-0.5-0.7-0.9-1.5-1.2-2.3c0.1,1.1,0.2,2.1,0.3,3.1C366.2,55,367.1,55.2,367.9,55.1z"/>
		<path class="st14" d="M379.4,63.6c0.8-0.4,1.4-0.8,2.1-1.4C380.9,62.7,380.2,63.2,379.4,63.6L379.4,63.6z"/>
		<path class="st14" d="M379.4,63.6L379.4,63.6C379.4,63.6,379.4,63.6,379.4,63.6L379.4,63.6C379.4,63.6,379.4,63.6,379.4,63.6z"/>
		<polygon class="st14" points="379.4,63.6 379.4,63.6 379.4,63.6 379.4,63.6 		"/>
		<path class="st14" d="M375.4,64.4L375.4,64.4c1.4,0.1,2.7-0.2,3.9-0.8v0C378.2,64.1,376.8,64.4,375.4,64.4z"/>
		<path class="st14" d="M385.2,54.5c-0.6,0.4-1.3,0.7-2.1,0.6c-1.9-0.2-3.1-2.2-2.8-4.5c0.2-1.6,1.2-2.9,2.4-3.5
			c-0.9-1.8-2-3.3-2.5-4.6c-1.4,2.3-3.6,3.4-3.6,3.4s-0.5,0.1-1.2,0.2l0,11.5l4,0l0,5.8c0.8-0.3,1.5-0.8,2.1-1.4
			C383.3,60.6,384.6,58.1,385.2,54.5z"/>
		<path class="st14" d="M377,57.8l2.3,0l0,5.8c0,0,0,0,0.1,0l0-5.8l-4,0v0H377z"/>
		<polygon class="st14" points="377,57.8 379.4,57.8 379.4,63.6 379.4,63.6 379.4,57.8 		"/>
		<polygon class="st14" points="375.4,57.8 375.4,57.8 377,57.8 		"/>
		<path class="st14" d="M379.4,57.8H377l-1.6,0l0,6.6c1.4,0,2.7-0.2,3.9-0.8V57.8z"/>
		<path class="st14" d="M382.7,47.2c-1.2,0.6-2.1,1.8-2.4,3.5c-0.3,2.2,1,4.3,2.8,4.5c0.7,0.1,1.4-0.2,2.1-0.6
			c0.2-1.3,0.4-2.8,0.4-4.5c-0.4,1.3-0.9,2.3-1.4,3.1C384.2,50.8,383.5,48.9,382.7,47.2z"/>
		<path class="st15" d="M393.1,75.8c-0.2-0.8-0.5-1.5-0.8-2.2C392.6,74.3,392.9,75,393.1,75.8C393.1,75.8,393.1,75.8,393.1,75.8z"/>
		<path class="st15" d="M392.4,73.6c-1.1-2.2-5.3-3.9-9.3-5.1C387,69.7,391.3,71.4,392.4,73.6z"/>
		<path class="st15" d="M382.7,68.4c0.1,0,0.1,0,0.2,0C382.9,68.4,382.8,68.4,382.7,68.4z"/>
		<path class="st15" d="M381.1,67.9C381.1,67.9,381.1,67.9,381.1,67.9c4.5,1.3,9.9,3.2,11.3,5.7c0.3,0.7,0.5,1.4,0.8,2.1
			c-0.2-0.8-0.5-1.5-0.8-2.2c-1.1-2.1-5.3-3.9-9.3-5.1c-0.1,0-0.1,0-0.2-0.1c-0.1,0-0.1,0-0.2,0C382.2,68.2,381.6,68,381.1,67.9
			L381.1,67.9z"/>
		<path class="st9" d="M375.3,74.4L375.3,74.4l-2.8-2.8l-4.4,4.2c0,0,0,0,0,0v0l0,0c0-0.3,0.2-3.7,0.4-6.4c0.2-0.6,0.6-1.1,1.1-1.5
			c-4.4,1.2-9.8,3.2-11.1,5.7c-0.6,2.1-1.1,4.3-1.6,6.4c5,4.1,11.4,6.5,18.3,6.5c0.1,0,0.2,0,0.2,0L375.3,74.4L375.3,74.4z"/>
		<path class="st15" d="M393.1,75.8c0.4,1.2,0.7,2.5,1,3.8c0,0,0,0,0,0C393.8,78.3,393.5,77,393.1,75.8
			C393.1,75.8,393.1,75.8,393.1,75.8z"/>
		<path class="st9" d="M392.4,73.6c-1.3-2.5-6.8-4.5-11.2-5.7c0.5,0.3,1,0.9,1.1,1.5c0.3,2.6,0.5,6.3,0.4,6.3h0l-4.5-4.1l-2.6,2.5
			l-0.2,0.3l0,0l0,0l0,12.1c7.1-0.1,13.6-2.7,18.7-7c-0.3-1.2-0.6-2.5-1-3.8C392.9,75,392.6,74.3,392.4,73.6z"/>
		<path class="st16" d="M365.2,47.4c0.7-7.1,4.9-11.2,10.2-11.2c2.1,0,4,0.7,5.6,1.9c0.1-0.1,0.1-0.3,0.2-0.4
			c-8-4.3-14.2,0.7-15.7,3c-0.9,1.4-1.4,4.4-1.1,7.5C364.6,47.9,364.9,47.6,365.2,47.4z"/>
		<path class="st16" d="M365.2,47.4c0.3-0.2,0.7-0.4,1.1-0.5c0.5-0.1,1,0,1.4,0.1c0.9-1.7,2.4-2.9,4.9-2.4c0,1.6,1.6,1.7,2.8,1.6
			l0-10C370.1,36.2,365.9,40.2,365.2,47.4z"/>
		<path class="st16" d="M365.1,49.3c0-0.6,0-1.3,0.1-1.9c-0.3,0.2-0.6,0.5-0.8,0.8c0.1,1.1,0.4,2.2,0.7,3.2
			C365.1,50.7,365.1,50,365.1,49.3z"/>
		<path class="st16" d="M366.3,46.9c-0.4,0.1-0.8,0.2-1.1,0.5c-0.1,0.6-0.1,1.2-0.1,1.9c0,0.7,0,1.4,0.1,2.1
			c0.3,0.8,0.7,1.6,1.2,2.3c0,0-0.1-3.9,1.3-6.6C367.2,46.9,366.8,46.9,366.3,46.9z"/>
		<path class="st16" d="M380.2,42.6c-0.4-1-0.5-1.9,0.1-2.7h0c0.2-0.7,0.5-1.3,0.8-1.9c-1.6-1.2-3.6-1.9-5.6-1.9l0,10
			c0.7-0.1,1.2-0.2,1.2-0.2S378.8,44.9,380.2,42.6z"/>
		<path class="st16" d="M381.3,38.3c2.3,1.9,3.9,5,4.3,9.1c0.2,0.2,0.5,0.4,0.6,0.6c1-4.5,0.4-9.9-5-10.4c0,0,0,0,0,0.1c0,0,0,0,0,0
			C381.3,37.9,381.3,38.1,381.3,38.3z"/>
		<path class="st16" d="M385.6,47.4c0.1,0.6,0.1,1.3,0.1,1.9c0,0.3,0,0.5,0,0.8c0.2-0.7,0.4-1.4,0.6-2.1
			C386,47.8,385.8,47.5,385.6,47.4z"/>
		<path class="st16" d="M385.7,50.1c0-0.3,0-0.5,0-0.8C385.7,49.6,385.7,49.8,385.7,50.1C385.7,50.1,385.7,50.1,385.7,50.1z"/>
		<path class="st16" d="M380.2,42.6c0.5,1.3,1.6,2.8,2.5,4.6c0.5-0.2,1-0.3,1.6-0.3c0.5,0,0.9,0.2,1.3,0.5c-0.4-4.2-2-7.3-4.3-9.1
			C381.4,40,380.9,41.5,380.2,42.6z"/>
		<path class="st16" d="M382.7,47.2c0.9,1.7,1.6,3.6,1.5,5.9c0.5-0.7,1-1.8,1.4-3.1c0-0.3,0-0.5,0-0.8c0-0.7,0-1.3-0.1-1.9
			c-0.4-0.3-0.8-0.4-1.3-0.5C383.7,46.9,383.2,47,382.7,47.2z"/>
		<path class="st16" d="M381.3,38.3c0-0.2,0-0.4,0-0.6c0,0,0,0,0,0c-0.1,0.1-0.1,0.3-0.2,0.4C381.1,38.1,381.2,38.2,381.3,38.3z"/>
		<path class="st16" d="M380.2,40c-0.6,0.8-0.5,1.7-0.1,2.7c0.7-1.1,1.2-2.6,1.1-4.4c-0.1-0.1-0.2-0.1-0.2-0.2
			C380.7,38.7,380.4,39.3,380.2,40L380.2,40z"/>
		<path class="st6" d="M380.1,67.5L380.1,67.5c0.3,0.2,0.6,0.3,0.9,0.4C380.8,67.7,380.5,67.6,380.1,67.5z"/>
		<path class="st6" d="M381.1,67.9L381.1,67.9C381.1,67.9,381.1,67.9,381.1,67.9c-0.3-0.1-0.7-0.2-1-0.3l0,0
			C380.4,67.7,380.7,67.8,381.1,67.9z"/>
		<polygon class="st6" points="377.6,71.2 375.4,74.3 375.4,74.3 375.7,74.1 378.3,71.2 		"/>
		<path class="st6" d="M379.4,69.8l1.6-1.9c-0.3-0.1-0.7-0.2-1-0.3l-0.6,0.9L379.4,69.8z"/>
		<polygon class="st6" points="379.4,68.6 379.4,69.9 379.4,69.8 379.4,68.6 		"/>
		<polygon class="st6" points="377.6,71.1 377.6,71.2 378.3,71.2 378.3,71.1 		"/>
		<polygon class="st6" points="379.4,69.9 379.4,68.6 377.6,71.1 378.3,71.1 		"/>
		<polygon class="st6" points="375.4,74.3 375.3,74.4 375.4,74.4 375.4,74.3 		"/>
		<path class="st6" d="M381.1,67.9C381.1,67.9,381.1,67.9,381.1,67.9C381.1,67.9,381.1,67.9,381.1,67.9L381.1,67.9z"/>
		<path class="st6" d="M379.4,69.8l0,1.3l-0.1,0v0l-1.1,0l-2.6,3l2.6-2.5l4.5,4.1h0c0.1,0-0.2-3.7-0.4-6.3c-0.2-0.6-0.6-1.1-1.1-1.5
			c0,0-0.1,0-0.1,0L379.4,69.8z"/>
		<polygon class="st6" points="375.4,74.4 375.4,74.4 375.4,74.3 		"/>
		<polygon class="st6" points="379.4,71.1 379.4,71.1 379.4,69.8 379.4,69.9 		"/>
		<polygon class="st6" points="378.3,71.2 379.4,71.1 379.4,71.1 378.3,71.1 		"/>
		<polygon class="st6" points="378.3,71.1 379.4,71.1 379.4,69.9 		"/>
		<path class="st6" d="M370.6,67.5c-0.3,0.1-0.7,0.2-0.9,0.4c0.3-0.1,0.7-0.2,1-0.3L370.6,67.5z"/>
		<path class="st6" d="M371.4,69.8l0-1.1l-0.7-1c-0.3,0.1-0.7,0.2-1,0.3c0,0,0,0-0.1,0c0,0,0.1,0,0.1,0L371.4,69.8z"/>
		<polygon class="st6" points="375.4,74.3 373.2,71.2 372.6,71.2 375.4,74.3 375.4,74.3 		"/>
		<polygon class="st6" points="375.4,74.3 375.4,74.4 375.4,74.3 		"/>
		<polygon class="st6" points="375.4,74.3 375.4,74.3 375.4,74.3 		"/>
		<polygon class="st6" points="371.4,68.7 371.4,69.8 372.6,71.2 373.2,71.2 		"/>
		<path class="st6" d="M368.5,69.4c-0.2,2.6-0.4,6.1-0.4,6.4l4.4-4.2l2.9,2.7l0,0l-2.8-3.2l-1.2,0l0-1.4l-1.7-1.9c0,0-0.1,0-0.1,0
			C369.1,68.3,368.7,68.8,368.5,69.4z"/>
		<path class="st6" d="M368.1,75.8C368.1,75.8,368.1,75.8,368.1,75.8L368.1,75.8L368.1,75.8z"/>
		<polygon class="st6" points="375.4,74.4 375.4,74.4 375.4,74.3 		"/>
		<polygon class="st6" points="371.4,71.2 372.6,71.2 371.4,69.8 		"/>
		<polygon class="st6" points="375.4,74.3 375.4,74.3 375.4,74.3 		"/>
		<polygon class="st6" points="375.4,74.3 375.4,74.3 375.4,74.3 375.4,74.3 375.4,74.3 		"/>
		<polygon class="st6" points="375.4,74.3 375.4,74.3 375.4,74.3 375.4,74.3 		"/>
		<polygon class="st6" points="375.4,74.3 375.4,74.3 375.4,74.4 375.4,74.3 		"/>
	</g>
</g>
</svg>
